<?xml version="1.0" encoding="utf-8"?>
<!-- Generator: Adobe Illustrator 23.0.3, SVG Export Plug-In . SVG Version: 6.00 Build 0)  -->
<svg version="1.1"
	 id="Layer_1" inkscape:version="0.92.0 r15299" sodipodi:docname="docusign.svg" xmlns:cc="http://creativecommons.org/ns#" xmlns:dc="http://purl.org/dc/elements/1.1/" xmlns:inkscape="http://www.inkscape.org/namespaces/inkscape" xmlns:rdf="http://www.w3.org/1999/02/22-rdf-syntax-ns#" xmlns:sodipodi="http://sodipodi.sourceforge.net/DTD/sodipodi-0.dtd" xmlns:svg="http://www.w3.org/2000/svg"
	 xmlns="http://www.w3.org/2000/svg" xmlns:xlink="http://www.w3.org/1999/xlink" x="0px" y="0px" viewBox="0 0 545.4 168.6"
	 style="enable-background:new 0 0 545.4 168.6;" xml:space="preserve">
<style type="text/css">
	.st0{filter:url(#Adobe_OpacityMaskFilter);}
	.st1{fill-rule:evenodd;clip-rule:evenodd;fill:#FFFFFF;}
	.st2{mask:url(#mask-2_2_);fill-rule:evenodd;clip-rule:evenodd;}
	.st3{fill-rule:evenodd;clip-rule:evenodd;}
	.st4{filter:url(#Adobe_OpacityMaskFilter_1_);}
	.st5{mask:url(#mask-4_12_);fill-rule:evenodd;clip-rule:evenodd;}
	.st6{filter:url(#Adobe_OpacityMaskFilter_2_);}
	.st7{mask:url(#mask-4_11_);fill-rule:evenodd;clip-rule:evenodd;}
	.st8{filter:url(#Adobe_OpacityMaskFilter_3_);}
	.st9{mask:url(#mask-4_10_);fill-rule:evenodd;clip-rule:evenodd;}
	.st10{filter:url(#Adobe_OpacityMaskFilter_4_);}
	.st11{mask:url(#mask-4_9_);fill-rule:evenodd;clip-rule:evenodd;}
	.st12{filter:url(#Adobe_OpacityMaskFilter_5_);}
	.st13{mask:url(#mask-4_8_);fill-rule:evenodd;clip-rule:evenodd;}
	.st14{filter:url(#Adobe_OpacityMaskFilter_6_);}
	.st15{mask:url(#mask-4_7_);fill-rule:evenodd;clip-rule:evenodd;}
</style>
<sodipodi:namedview  bordercolor="#666666" borderopacity="1" gridtolerance="10" guidetolerance="10" id="namedview3725" inkscape:current-layer="Layer_1" inkscape:cx="322.55225" inkscape:cy="21.33193" inkscape:pageopacity="0" inkscape:pageshadow="2" inkscape:window-height="1017" inkscape:window-maximized="1" inkscape:window-width="1920" inkscape:window-x="-8" inkscape:window-y="1072" inkscape:zoom="2.3918129" objecttolerance="10" pagecolor="#ffffff" showgrid="false">
	</sodipodi:namedview>
<g id="Artboard">
	<g id="Group-17" transform="translate(3.000000, 4.000000)">
		<g id="Group-3" transform="translate(0.000000, 0.317639)">
			<g id="Clip-2">
			</g>
			<defs>
				<filter id="Adobe_OpacityMaskFilter" filterUnits="userSpaceOnUse" x="52.1" y="32.9" width="66.9" height="78.3">
					<feColorMatrix  type="matrix" values="1 0 0 0 0  0 1 0 0 0  0 0 1 0 0  0 0 0 1 0"/>
				</filter>
			</defs>
			<mask maskUnits="userSpaceOnUse" x="52.1" y="32.9" width="66.9" height="78.3" id="mask-2_2_">
				<g class="st0">
					<polygon id="path-1_2_" class="st1" points="52.1,32.9 119,32.9 119,111.2 52.1,111.2 					"/>
				</g>
			</mask>
			<path id="Fill-1" class="st2" d="M82.4,97.5c14.8,0,20.6-9.1,20.6-24.7s-6.7-26.4-20.1-26.4h-15v51.1H82.4z M52.1,32.9h32.7
				c20.8,0,34.2,16.9,34.2,40c0,12.7-4.2,23.9-12.4,30.8c-5.8,4.8-13.3,7.6-23.1,7.6H52.1V32.9z"/>
		</g>
		<path id="Fill-4" class="st3" d="M164,83.5c0-11-5.1-18.4-14.1-18.4c-9.1,0-14.1,7.4-14.1,18.4s5,18.3,14.1,18.3
			C158.9,101.8,164,94.5,164,83.5 M120.7,83.5c0-16.8,11.9-29.7,29.2-29.7s29.2,12.9,29.2,29.7s-11.9,29.7-29.2,29.7
			S120.7,100.3,120.7,83.5"/>
		<path id="Fill-6" class="st3" d="M181.5,83.5c0-16.8,10.9-29.7,27.9-29.7c14.5,0,23.4,8.4,25.4,20.6h-14.5
			c-1-4.9-4.8-8.7-10.2-8.7c-8.9,0-13.5,6.9-13.5,17.7c0,10.6,4.2,17.7,13.3,17.7c6,0,10.2-3.2,11.2-9.5h14.3
			c-1,11.9-10.2,21.5-25.1,21.5C192.5,113.2,181.5,100.3,181.5,83.5"/>
		<path id="Fill-8" class="st3" d="M273.8,111.6V105h-0.3c-3.8,5.1-8.2,8.1-16,8.1c-12.4,0-19.4-8-19.4-20.3V55.4h14.7v34.9
			c0,6.6,2.9,10.2,9.3,10.2c7,0,11.2-5.3,11.2-12.7V55.4h14.8v56.2H273.8z"/>
		<g id="Clip-11">
		</g>
		<defs>
			<filter id="Adobe_OpacityMaskFilter_1_" filterUnits="userSpaceOnUse" x="360.2" y="33.6" width="14.8" height="78">
				<feColorMatrix  type="matrix" values="1 0 0 0 0  0 1 0 0 0  0 0 1 0 0  0 0 0 1 0"/>
			</filter>
		</defs>
		<mask maskUnits="userSpaceOnUse" x="360.2" y="33.6" width="14.8" height="78" id="mask-4_12_">
			<g class="st4">
				<polygon id="path-3_12_" class="st1" points="52.1,130.7 503.3,130.7 503.3,31.8 52.1,31.8 				"/>
			</g>
		</mask>
		<path id="Fill-10" class="st5" d="M360.2,111.6H375V55.4h-14.8V111.6z M360.2,47.5H375V33.6h-14.8V47.5z"/>
		<defs>
			<filter id="Adobe_OpacityMaskFilter_2_" filterUnits="userSpaceOnUse" x="379.9" y="53.8" width="54.1" height="76.9">
				<feColorMatrix  type="matrix" values="1 0 0 0 0  0 1 0 0 0  0 0 1 0 0  0 0 0 1 0"/>
			</filter>
		</defs>
		<mask maskUnits="userSpaceOnUse" x="379.9" y="53.8" width="54.1" height="76.9" id="mask-4_11_">
			<g class="st6">
				<polygon id="path-3_11_" class="st1" points="52.1,130.7 503.3,130.7 503.3,31.8 52.1,31.8 				"/>
			</g>
		</mask>
		<path id="Fill-12" class="st7" d="M420.2,81c0-8.2-4.4-15.2-13.3-15.2c-7.5,0-12.5,5.9-12.5,15.3c0,9.5,5,15.1,12.6,15.1
			C416.4,96.2,420.2,89.3,420.2,81 M381.1,113.2h14.7c1.2,3.5,4.4,6.2,11.2,6.2c8.4,0,12.4-4.1,12.4-11.7v-6.1h-0.3
			c-3.3,3.7-7.5,6.6-14.6,6.6c-12.4,0-24.6-9.9-24.6-26.8c0-16.8,10-27.5,24.2-27.5c7,0,12.1,2.7,15.5,7.5h0.2v-5.9H434v51.9
			c0,7.9-2.5,13.3-6.6,17.1c-4.7,4.4-11.9,6.4-20.1,6.4C392,130.7,382.6,124.2,381.1,113.2"/>
		<defs>
			<filter id="Adobe_OpacityMaskFilter_3_" filterUnits="userSpaceOnUse" x="440.3" y="53.8" width="50.6" height="57.7">
				<feColorMatrix  type="matrix" values="1 0 0 0 0  0 1 0 0 0  0 0 1 0 0  0 0 0 1 0"/>
			</filter>
		</defs>
		<mask maskUnits="userSpaceOnUse" x="440.3" y="53.8" width="50.6" height="57.7" id="mask-4_10_">
			<g class="st8">
				<polygon id="path-3_10_" class="st1" points="52.1,130.7 503.3,130.7 503.3,31.8 52.1,31.8 				"/>
			</g>
		</mask>
		<path id="Fill-13" class="st9" d="M454.8,63h0.3c3.8-6,8.9-9.2,16.5-9.2c11.5,0,19.3,8.8,19.3,21v36.7h-14.8V77
			c0-6-3.5-10.3-9.7-10.3c-6.5,0-11.3,5.3-11.3,12.9v31.9h-14.8V55.4h14.5V63z"/>
		<defs>
			<filter id="Adobe_OpacityMaskFilter_4_" filterUnits="userSpaceOnUse" x="291.6" y="31.8" width="63.9" height="81.5">
				<feColorMatrix  type="matrix" values="1 0 0 0 0  0 1 0 0 0  0 0 1 0 0  0 0 0 1 0"/>
			</filter>
		</defs>
		<mask maskUnits="userSpaceOnUse" x="291.6" y="31.8" width="63.9" height="81.5" id="mask-4_9_">
			<g class="st10">
				<polygon id="path-3_9_" class="st1" points="52.1,130.7 503.3,130.7 503.3,31.8 52.1,31.8 				"/>
			</g>
		</mask>
		<path id="Fill-14" class="st11" d="M326.4,64.3c-11.5-2.5-17-4.4-17-10.7c0-5.6,5.6-9.2,14-9.2c7.7,0,13.7,3.7,14.9,11h15.2
			c-1.5-15.2-12.8-23.6-30-23.6c-17.3,0-29.8,8-29.8,23.4c0,16.3,12.7,20,26.7,23.2c11.9,2.7,19.3,4.3,19.3,11.9
			c0,7.2-7.1,10.1-15.1,10.1c-11.1,0-16.4-3.7-17.5-13.1h-15.5c0.5,16.5,12.5,26,33.6,26c17.5,0,30.3-8.9,30.3-24.8
			C355.5,71.7,342.4,67.8,326.4,64.3"/>
		<defs>
			<filter id="Adobe_OpacityMaskFilter_5_" filterUnits="userSpaceOnUse" x="491.5" y="53.9" width="11.8" height="11.9">
				<feColorMatrix  type="matrix" values="1 0 0 0 0  0 1 0 0 0  0 0 1 0 0  0 0 0 1 0"/>
			</filter>
		</defs>
		<mask maskUnits="userSpaceOnUse" x="491.5" y="53.9" width="11.8" height="11.9" id="mask-4_8_">
			<g class="st12">
				<polygon id="path-3_8_" class="st1" points="52.1,130.7 503.3,130.7 503.3,31.8 52.1,31.8 				"/>
			</g>
		</mask>
		<path id="Fill-15" class="st13" d="M497.4,54.8c-2.7,0-5,2.2-5,5c0,2.8,2.2,5,5,5c2.7,0,5-2.2,5-5
			C502.4,57.1,500.2,54.8,497.4,54.8 M497.4,65.7c-3.2,0-5.9-2.7-5.9-5.9s2.6-5.9,5.9-5.9c3.2,0,5.9,2.7,5.9,5.9
			S500.7,65.7,497.4,65.7"/>
		<defs>
			<filter id="Adobe_OpacityMaskFilter_6_" filterUnits="userSpaceOnUse" x="495.4" y="56.8" width="4.6" height="6.1">
				<feColorMatrix  type="matrix" values="1 0 0 0 0  0 1 0 0 0  0 0 1 0 0  0 0 0 1 0"/>
			</filter>
		</defs>
		<mask maskUnits="userSpaceOnUse" x="495.4" y="56.8" width="4.6" height="6.1" id="mask-4_7_">
			<g class="st14">
				<polygon id="path-3_7_" class="st1" points="52.1,130.7 503.3,130.7 503.3,31.8 52.1,31.8 				"/>
			</g>
		</mask>
		<path id="Fill-16" class="st15" d="M496.5,57.7v1.9h0.4c0.4,0,0.5,0,0.7,0c0.2,0,1.1-0.1,1.1-0.9c0-0.1,0-0.6-0.5-0.8
			c-0.2-0.1-0.5-0.1-1.2-0.1H496.5z M495.4,56.8h1.9c0.8,0,1.3,0,1.9,0.4c0.4,0.3,0.7,0.8,0.7,1.5c0,1.2-0.8,1.6-1.2,1.7l1.3,2.5
			h-1.3l-1.2-2.2h-1v2.2h-1.1V56.8z"/>
	</g>
</g>
</svg>
